
<svg width="72" height="72" xmlns="http://www.w3.org/2000/svg" xmlns:xlink="http://www.w3.org/1999/xlink"><defs><linearGradient x1="12.781%" y1="82.091%" x2="58.303%" y2="31.97%" id="a"><stop stop-color="#949DBB" offset="0%"/><stop stop-color="#DFE5F2" offset="100%"/></linearGradient><linearGradient x1="13.444%" y1="50%" x2="91.422%" y2="52.614%" id="b"><stop stop-color="#EBEEFB" offset="0%"/><stop stop-color="#E9EFFB" offset="100%"/></linearGradient><linearGradient x1="23.26%" y1="20.895%" x2="53.281%" y2="80.889%" id="c"><stop stop-color="#838DA8" offset="0%"/><stop stop-color="#C5CFE3" offset="100%"/></linearGradient><linearGradient x1="50%" y1="-10.049%" x2="50%" y2="100%" id="e"><stop stop-color="#9BAAC1" offset="0%"/><stop stop-color="#6F85A4" offset="100%"/></linearGradient><path d="M21 7.219c7.611 0 13.781 6.17 13.781 13.781 0 7.611-6.17 13.781-13.781 13.781-7.611 0-13.781-6.17-13.781-13.781 0-7.611 6.17-13.781 13.781-13.781zm1.209 17.9h-2.587v2.618h2.587v-2.619zm.031-11.01h-2.618v8.747h2.618v-8.747z" id="d"/></defs><g fill="none" fill-rule="evenodd"><path d="M0 0h72v72H0z"/><path d="M37.872 2.379l2.972.981a1.5 1.5 0 011.09 1.444V33.65a3 3 0 001.592 2.649l17.86 9.662 8.855-.072-.051 5.408a1.494 1.494 0 01-.775 1.677L37.717 69.26a3 3 0 01-2.714.014L4.163 53.837a1.5 1.5 0 01-.829-1.342V20.117a1.5 1.5 0 01.83-1.342L36.794 2.48a1.5 1.5 0 011.078-.101z" fill="url(#a)"/><path d="M41.91 32.042l27.455 12.483a1.5 1.5 0 01.069 2.698l-32.06 16.595a3 3 0 01-2.72.02L8.163 50.61 41.91 32.042z" fill="url(#b)"/><path d="M8.605 20.778L41.21 4.232a.5.5 0 01.726.446v27.53L8.058 50.659V21.67a1 1 0 01.547-.89z" fill="url(#c)"/><g transform="translate(33)"><circle fill-opacity=".7" fill="#F6F6F6" cx="21" cy="21" r="13.125"/><use fill="#FFF" xlink:href="#d"/><use fill="url(#e)" xlink:href="#d"/></g></g></svg>