<?xml version="1.0" standalone="no"?><!DOCTYPE svg PUBLIC "-//W3C//DTD SVG 1.1//EN" "http://www.w3.org/Graphics/SVG/1.1/DTD/svg11.dtd"><svg t="1591925196817" class="icon" viewBox="0 0 1024 1024" version="1.1" xmlns="http://www.w3.org/2000/svg" p-id="11737" xmlns:xlink="http://www.w3.org/1999/xlink" width="128" height="128"><defs><style type="text/css"></style></defs><path d="M293.34528 327.44448c50.66752 0 91.73504-40.85248 91.73504-91.24352s-41.06752-91.2384-91.73504-91.2384c-50.67264 0-91.74016 40.84736-91.74016 91.2384s41.06752 91.24352 91.74016 91.24352z m0-123.86304c18.10432 0 32.78848 14.57152 32.78848 32.61952 0 17.9968-14.68416 32.56832-32.78848 32.56832s-32.78848-14.57664-32.78848-32.56832c0.00512-18.05312 14.68416-32.61952 32.78848-32.61952z m-1.65376 139.37152c-68.77696 1.32608-123.42272 57.84576-122.04032 126.28992v141.75232c-0.05632 42.89024 22.2464 82.7392 58.95168 105.3184v161.12128h58.95168v-204.50304c-21.08928 0-39.57248-11.09504-49.99168-27.70944h0.75776a64.45056 64.45056 0 0 1-9.71264-34.2272V469.24288c0-36.0448 29.312-65.23904 65.52064-65.23904s65.52064 29.19424 65.52064 65.23904v141.75232c0 12.58496-3.5328 24.28928-9.76896 34.2272h0.80896a58.99776 58.99776 0 0 1-50.048 27.70944v204.50304h59.06432v-161.15712c35.4048-21.81632 58.95168-60.82048 58.95168-105.28256V464.3328c-1.38752-68.38784-58.1888-122.75712-126.96576-121.37984z m371.87072-34.22208h161.34656c16.28672 0 29.47584-13.1328 29.47584-29.3632v-101.0688c0-16.17408-13.24544-29.25568-29.53216-29.25568h-161.29024c-16.28672 0-29.47584 13.0816-29.47584 29.25568v17.21856h-81.9712c-32.56832 0-58.95168 26.21952-58.95168 58.61888v515.71712c0 32.39936 26.37824 58.6752 58.95168 58.6752h81.9712v21.1968c0 16.2304 13.18912 29.31712 29.47584 29.31712h161.34656c16.28672 0 29.47584-13.08672 29.47584-29.31712v-101.06368c0-16.17408-13.24544-29.312-29.53216-29.312h-161.29024c-16.28672 0-29.47584 13.1328-29.47584 29.312v21.248h-81.9712V548.6592l81.9712-0.0256v16.71168c0 16.17408 13.18912 29.312 29.47584 29.312h161.34656c16.28672 0 29.47584-13.1328 29.47584-29.312V464.3328c0-16.2304-13.24544-29.3632-29.53216-29.3632h-161.29024c-16.28672 0-29.47584 13.1328-29.47584 29.3632v25.61024h-81.9712V254.14144h81.9712v25.22624c0 16.22528 13.18912 29.3632 29.47584 29.3632z m29.47072-101.06368h102.33856v42.33728h-102.33856V207.6672z m0 570.30144h102.33856v42.38848h-102.33856v-42.38848z m0-284.32384h102.33856v42.38848h-102.33856v-42.38848z" p-id="11738"></path></svg>