<?xml version="1.0" standalone="no"?><!DOCTYPE svg PUBLIC "-//W3C//DTD SVG 1.1//EN" "http://www.w3.org/Graphics/SVG/1.1/DTD/svg11.dtd"><svg t="1591851919014" class="icon" viewBox="0 0 1024 1024" version="1.1" xmlns="http://www.w3.org/2000/svg" p-id="5309" xmlns:xlink="http://www.w3.org/1999/xlink" width="128" height="128"><defs><style type="text/css"></style></defs><path d="M621.248 877.248l320-320c24.992051-24.992051 24.992051-65.504051 0-90.496l-320-320c-24.992051-24.992051-65.504051-24.992051-90.496 0-24.992051 24.992051-24.992051 65.504051 0 90.496l210.752 210.752-613.504 0c-35.360051 0-64 28.640051-64 64s28.640051 64 64 64l613.504 0-210.752 210.752c-12.48 12.48-18.752 28.864-18.752 45.248s6.240051 32.768 18.752 45.248c24.992051 24.992051 65.504051 24.992051 90.496 0z" p-id="5310"></path></svg>