<?xml version="1.0" standalone="no"?><!DOCTYPE svg PUBLIC "-//W3C//DTD SVG 1.1//EN" "http://www.w3.org/Graphics/SVG/1.1/DTD/svg11.dtd">
<svg t="1591779914831" class="icon" viewBox="0 0 1024 1024" version="1.1" xmlns="http://www.w3.org/2000/svg" p-id="14157" xmlns:xlink="http://www.w3.org/1999/xlink" width="128" height="128"><defs><style type="text/css"></style></defs><path d="M368 0a96 96 0 0 1 96 96v832a96 96 0 0 1-96 96H176a96 96 0 0 1-96-96V96a96 96 0 0 1 96-96h192z m464 0a96 96 0 0 1 96 96v832a96 96 0 0 1-96 96H640a96 96 0 0 1-96-96V96a96 96 0 0 1 96-96h192zM384 784H160v128a48 48 0 0 0 45.184 47.92L208 960h128a48 48 0 0 0 47.92-45.184L384 912v-128z m464 0H624v128a48 48 0 0 0 45.184 47.92L672 960h128a48 48 0 0 0 47.92-45.184L848 912v-128zM336 80h-128a48 48 0 0 0-47.92 45.184L160 128v560h224V128a48 48 0 0 0-48-48z m464 0h-128a48 48 0 0 0-47.92 45.184L624 128v560h224V128a48 48 0 0 0-48-48zM272 384a64 64 0 1 1 0 128 64 64 0 0 1 0-128z m464 0a64 64 0 1 1 0 128 64 64 0 0 1 0-128zM272 192a64 64 0 1 1 0 128 64 64 0 0 1 0-128z m464 0a64 64 0 1 1 0 128 64 64 0 0 1 0-128z" p-id="14158"></path></svg>