<?xml version="1.0" standalone="no"?><!DOCTYPE svg PUBLIC "-//W3C//DTD SVG 1.1//EN" "http://www.w3.org/Graphics/SVG/1.1/DTD/svg11.dtd"><svg t="1591779925925" class="icon" viewBox="0 0 1024 1024" version="1.1" xmlns="http://www.w3.org/2000/svg" p-id="14924" xmlns:xlink="http://www.w3.org/1999/xlink" width="128" height="128"><defs><style type="text/css"></style></defs><path d="M170.666667 0h682.666666a170.666667 170.666667 0 0 1 170.666667 170.666667v682.666666a170.666667 170.666667 0 0 1-170.666667 170.666667H170.666667a170.666667 170.666667 0 0 1-170.666667-170.666667V170.666667a170.666667 170.666667 0 0 1 170.666667-170.666667z m531.387733 494.455467l0.136533-0.034134h0.8192v1.8432a16.452267 16.452267 0 0 1-5.3248 12.322134 19.729067 19.729067 0 0 1-13.312 5.2224H564.565333c-1.9456 0-2.935467-0.9216-4.881066-0.9216a23.552 23.552 0 0 1-18.670934-10.171734l-47.104-70.144h-6.8608c-24.064 0-45.704533-13.380267-54.6816-33.792-8.977067-20.3776-3.4816-43.690667 13.858134-58.948266a63.146667 63.146667 0 0 1 65.024-10.24c21.9136 9.0112 35.669333 29.320533 34.679466 51.3024-0.3072 11.025067-4.437333 21.7088-11.776 30.446933l43.178667 65.570133h106.052267a19.729067 19.729067 0 0 1 13.312 5.2224 16.452267 16.452267 0 0 1 5.3248 12.322134z m-357.2736 2.9696h0.068267v-0.785067h116.155733c1.979733 0 2.9696 0.853333 4.949333 0.853333a23.483733 23.483733 0 0 1 19.694934 9.659734l43.349333 61.3376c3.8912-0.750933 7.850667-1.024 11.810133-0.887467 26.555733-0.341333 50.005333 14.916267 57.0368 37.034667 7.031467 22.152533-4.096 45.602133-27.136 57.070933-23.005867 11.434667-52.053333 8.021333-70.656-8.362667-18.6368-16.349867-22.1184-41.540267-8.4992-61.2352l-41.3696-59.5968H344.746667c-10.990933-0.273067-19.729067-8.055467-19.729067-17.544533s8.738133-17.271467 19.729067-17.544533z m478.4128 140.936533a19.182933 19.182933 0 0 0-19.2512-19.012267h-57.992533v-38.024533h58.026666a19.2512 19.2512 0 0 0 19.285334-19.012267v-38.058666a19.2512 19.2512 0 0 0-19.319467-19.012267h-57.992533v-38.058667h58.026666a19.2512 19.2512 0 0 0 19.285334-19.012266v-38.058667a19.2512 19.2512 0 0 0-19.319467-19.012267h-57.992533v-38.058666h58.026666a19.2512 19.2512 0 0 0 19.285334-19.012267V295.936a19.2512 19.2512 0 0 0-19.319467-19.012267h-68.608c-13.243733-23.381333-22.528-37.956267-50.3808-38.024533H343.1424c-27.7504 0.273067-36.9664 14.813867-50.414933 38.024533h-68.608A19.217067 19.217067 0 0 0 204.8 295.970133v38.058667a19.217067 19.217067 0 0 0 19.319467 19.012267h57.992533v38.058666H224.119467a19.217067 19.217067 0 0 0-19.319467 19.012267v38.058667a19.217067 19.217067 0 0 0 19.319467 19.012266h57.992533v38.058667H224.119467a19.217067 19.217067 0 0 0-19.319467 19.012267v38.024533c-0.068267 10.308267 8.533333 18.773333 19.319467 18.944h57.992533v38.024533H224.119467A19.217067 19.217067 0 0 0 204.8 638.293333v38.0928a19.217067 19.217067 0 0 0 19.319467 19.0464h57.992533c-0.477867 41.3696 17.749333 75.3664 61.0304 76.0832h341.674667c43.281067-0.7168 61.5424-34.7136 61.098666-76.117333h57.9584a19.2512 19.2512 0 0 0 19.319467-19.012267v-38.024533z" p-id="14925"></path></svg>