<?xml version="1.0" standalone="no"?><!DOCTYPE svg PUBLIC "-//W3C//DTD SVG 1.1//EN" "http://www.w3.org/Graphics/SVG/1.1/DTD/svg11.dtd"><svg t="1591779952465" class="icon" viewBox="0 0 1024 1024" version="1.1" xmlns="http://www.w3.org/2000/svg" p-id="15719" xmlns:xlink="http://www.w3.org/1999/xlink" width="128" height="128"><defs><style type="text/css"></style></defs><path d="M281.6 467.2h468.8v70.4H281.6v-70.4z m0 136h468.8v70.4H281.6v-70.4z m0 136h468.8v70.4H281.6v-70.4z m617.6-584h-264c0-65.6-52.8-118.4-116.8-118.4-65.6 0-116.8 52.8-116.8 118.4H136c-16 0-28.8 12.8-28.8 28.8v766.4c0 16 12.8 28.8 28.8 28.8h763.2c16 0 28.8-12.8 28.8-28.8V184c0-16-12.8-28.8-28.8-28.8zM516.8 96c32 0 59.2 27.2 59.2 59.2s-25.6 59.2-59.2 59.2c-32 0-59.2-27.2-59.2-59.2 1.6-32 27.2-59.2 59.2-59.2z m336 809.6h-672V230.4h100.8v88c0 16 12.8 28.8 28.8 28.8h411.2c16 0 28.8-12.8 28.8-28.8v-88h100.8v675.2h1.6z m0 0" p-id="15720"></path></svg>