<?xml version="1.0" standalone="no"?><!DOCTYPE svg PUBLIC "-//W3C//DTD SVG 1.1//EN" "http://www.w3.org/Graphics/SVG/1.1/DTD/svg11.dtd"><svg t="1591779892667" class="icon" viewBox="0 0 1024 1024" version="1.1" xmlns="http://www.w3.org/2000/svg" p-id="13398" xmlns:xlink="http://www.w3.org/1999/xlink" width="128" height="128"><defs><style type="text/css"></style></defs><path d="M862.44997737 833.69971328a83.37371843 83.37371843 0 0 0-76.39809507 50.06428249h-158.93740878A116.48289724 116.48289724 0 0 0 545.37618832 789.0757495V650.13067752h200.25712993c55.20421548 0 100.12856496-44.92434948 100.12856496-100.12856496s-44.92434948-100.12856496-100.12856496-100.12856496H278.36668175c-55.20421548 0-100.12856496 44.92434948-100.12856496 100.12856496s44.92434948 100.12856496 100.12856496 100.12856496h200.25712993v138.94507198A116.41614486 116.41614486 0 0 0 396.88552648 883.76399577H237.9481177A83.37371843 83.37371843 0 0 0 78.10955183 917.14018409a83.4404708 83.4404708 0 0 0 159.83856587 33.37618832h168.95026528c18.82417021 39.31714984 58.67533907 66.75237664 105.10161702 66.75237664s86.27744681-27.43522679 105.10161702-66.75237664h168.95026528A83.37371843 83.37371843 0 0 0 945.89044817 917.14018409a83.4404708 83.4404708 0 0 0-83.4404708-83.44047081zM278.36668175 583.37830088a33.4095645 33.4095645 0 0 1 0-66.75237663h467.2666365a33.4095645 33.4095645 0 0 1 0 66.75237663H278.36668175z m233.63331825 367.13807153c-27.60210774 0-50.06428249-22.46217474-50.06428249-50.06428248S484.39789226 850.38780745 512 850.38780745s50.06428249 22.46217474 50.06428249 50.06428248S539.60210774 950.51637241 512 950.51637241z" p-id="13399"></path><path d="M256.35260009 722.15979547h97.45278885a34.08631999 34.08631999 0 1 0 0-68.17263998H256.35260009A187.67927786 187.67927786 0 0 1 68.87784017 466.51239557a186.45217033 186.45217033 0 0 1 158.16052474-185.22506281l20.28136039-3.17002776 6.64683241-19.42920239C291.76828656 148.5211164 395.45887196 74.51971571 512 74.51971571a272.69055989 272.69055989 0 0 1 257.99935598 184.1683869l6.68091872 19.42920239 20.28136039 3.17002776A186.45217033 186.45217033 0 0 1 955.12215983 466.51239557c0 103.3497222-84.12503773 187.47475993-187.47475992 187.47475992h-103.62241278a34.08631999 34.08631999 0 1 0 0 68.17263998h103.62241278c140.98101946 0 255.64739991-114.66638044 255.6473999-255.6473999a254.14760182 254.14760182 0 0 0-195.79182201-248.62561799 341.03363146 341.03363146 0 0 0-630.97186928 0A254.14760182 254.14760182 0 0 0 0.70520019 466.51239557C0.70520019 607.49341504 115.37158063 722.15979547 256.35260009 722.15979547z" p-id="13400"></path></svg>