<?xml version="1.0" standalone="no"?><!DOCTYPE svg PUBLIC "-//W3C//DTD SVG 1.1//EN" "http://www.w3.org/Graphics/SVG/1.1/DTD/svg11.dtd"><svg t="1591863519623" class="icon" viewBox="0 0 1024 1024" version="1.1" xmlns="http://www.w3.org/2000/svg" p-id="11048" xmlns:xlink="http://www.w3.org/1999/xlink" width="128" height="128"><defs><style type="text/css"></style></defs><path d="M575.572386 477.091956l383.919926 0 0 82.656535-383.919926 0 0-82.656535Z" p-id="11049"></path><path d="M575.572386 166.760025l383.919926 0 0 82.653465-383.919926 0 0-82.653465Z" p-id="11050"></path><path d="M76.088444 407.986041c16.140609 16.140609 42.312688 16.140609 58.453297 0L243.137041 299.391764l0 563.432393 716.355271 0 0-82.656535L325.791529 780.167622 325.791529 297.885458 435.738617 407.831522l0.001023 0.001023 0.153496 0.153496 0.004093-0.00307c16.152888 15.987113 42.205241 15.937994 58.295708-0.151449 16.09456-16.09456 16.137539-42.157145 0.137123-58.310034l0.004093-0.00307L330.716702 185.900967c-25.471115-25.472138-65.467037-25.50386-90.768283-0.201591L76.101747 349.518419c-0.004093 0.004093-0.00921 0.00921-0.013303 0.014326C59.946812 365.673353 59.946812 391.844409 76.088444 407.986041z" p-id="11051"></path></svg>