<?xml version="1.0" standalone="no"?><!DOCTYPE svg PUBLIC "-//W3C//DTD SVG 1.1//EN" "http://www.w3.org/Graphics/SVG/1.1/DTD/svg11.dtd"><svg t="1591780129483" class="icon" viewBox="0 0 1024 1024" version="1.1" xmlns="http://www.w3.org/2000/svg" p-id="16462" xmlns:xlink="http://www.w3.org/1999/xlink" width="128" height="128"><defs><style type="text/css"></style></defs><path d="M260.464294 881.142587c1.158158-1.077356 2.154712-2.154712 3.232068-3.232069l0.269339-0.323206c-4.471028 4.309424-4.632631 4.632631-3.501407 3.555275z" p-id="16463"></path><path d="M380.804966 500.701228L96.54457 358.975039l-0.888819-0.430943a90.013099 90.013099 0 0 0-37.842131-8.995923c-15.998737 0-30.596912 5.494516-41.155002 15.379258-10.585023 9.965544-16.402746 23.701833-16.402746 38.811752v382.272864c0 15.891002 6.62574 33.47884 18.611326 49.531444a123.976748 123.976748 0 0 0 45.599095 37.27652l284.152661 141.672322 0.808017 0.430942 0.215471 0.107736c12.928273 5.925458 25.668008 8.968989 37.815198 8.968989 16.025671 0 30.623846-5.467582 41.181935-15.352324 10.558089-9.965544 16.375812-23.728767 16.375812-38.838686V587.563061c0-15.917936-6.62574-33.532707-18.611326-49.558379a123.895947 123.895947 0 0 0-45.599095-37.303454z m600.599069-135.746863c-10.531155-9.911676-25.156264-15.379258-41.128068-15.379258-12.308793 0-25.048528 3.016597-37.869065 8.968989l-285.122281 142.211a123.518872 123.518872 0 0 0-45.599095 37.249586c-11.985586 16.025671-18.584392 33.640443-18.584392 49.558379v382.245929c0 15.082985 5.790789 28.900076 16.348878 38.811752 10.504222 9.911676 25.12933 15.352324 41.155001 15.352324h0.13467a90.524843 90.524843 0 0 0 37.922933-9.049791l283.829454-142.157132a123.518872 123.518872 0 0 0 45.599095-37.249585c11.985586-16.025671 18.584392-33.640443 18.584392-49.558379l1.077356-382.192062c0-15.109919-5.790789-28.873142-16.348878-38.811752z m-100.975197-97.500723c25.102396-12.066388 39.404298-31.404929 39.242695-53.059786-0.13467-21.466319-14.409637-40.400852-39.108025-51.98243L564.548042 13.628554c-17.103027-7.972435-39.054157-12.389595-61.894106-12.389595-24.051974 0-47.242063 4.821168-65.314711 13.520819L117.983955 169.952918c-25.075462 12.120256-39.377364 31.512665-39.242694 53.140588 0.161603 21.412452 14.409637 40.320051 39.134959 51.901628l315.988532 148.809806c12.174123 5.709987 26.880034 9.588469 42.6633 11.312238l-1.185092 1.10429h20.388964c24.051974 0 47.242063-4.794234 65.368578-13.547752l319.328336-155.166207z" p-id="16464"></path></svg>