<?xml version="1.0" standalone="no"?><!DOCTYPE svg PUBLIC "-//W3C//DTD SVG 1.1//EN" "http://www.w3.org/Graphics/SVG/1.1/DTD/svg11.dtd"><svg t="1591780202800" class="icon" viewBox="0 0 1024 1024" version="1.1" xmlns="http://www.w3.org/2000/svg" p-id="19210" xmlns:xlink="http://www.w3.org/1999/xlink" width="128" height="128"><defs><style type="text/css"></style></defs><path d="M534.570667 640.128a132.821333 132.821333 0 0 1 21.632-66.517333 298.624 298.624 0 0 0 52.053333-105.813334 142.293333 142.293333 0 0 0 51.029333-95.189333c3.285333-56.618667-10.666667-59.562667-10.666666-59.562667 20.565333-61.738667 26.794667-293.973333-122.112-267.136-23.466667-49.237333-179.754667-87.466667-252.757334 43.008a276.053333 276.053333 0 0 0-21.248 226.346667c0 5.12-9.941333-5.12-13.226666 27.946667-1.578667 35.413333 8.064 70.4 27.52 99.925333 6.698667 8.32 15.402667 14.762667 25.301333 18.773333 9.301333 40.405333 27.733333 78.08 53.930667 110.250667a61.781333 61.781333 0 0 1-32.298667 65.749333C172.16 666.922667 42.666667 745.216 42.666667 830.122667v65.792c16.512 118.656 338.218667 110.208 555.349333 105.429333a20.224 20.224 0 0 0 6.229333-26.453333 116.650667 116.650667 0 0 0-55.381333-42.24c0-1.834667-6.613333-2.986667-7.338667-4.778667a97.536 97.536 0 0 1-8.448-58.794667s0.768-225.664 1.493334-228.949333z" p-id="19211"></path><path d="M905.813333 576.853333h-241.621333a57.429333 57.429333 0 0 0-58.666667 55.466667v254.762667c1.877333 12.245333 6.954667 23.722667 14.677334 33.28l139.349333 96.170666a39.381333 39.381333 0 0 0 25.642667 7.381334 32.512 32.512 0 0 0 25.301333-11.093334l135.68-92.458666a36.992 36.992 0 0 0 18.346667-29.568v-254.762667c2.048-16.256-3.456-32.554667-14.933334-44.117333a52.181333 52.181333 0 0 0-43.733333-15.061334z m2.602667 145.706667l-51.712 50.261333 12.842667 69.888a11.861333 11.861333 0 0 1-4.778667 12.202667 11.306667 11.306667 0 0 1-7.338667 2.602667 15.274667 15.274667 0 0 1-5.845333 0l-64.896-32.170667-65.28 32.170667a15.274667 15.274667 0 0 1-5.504 0 11.306667 11.306667 0 0 1-7.68-2.56 12.629333 12.629333 0 0 1-4.778667-12.245334l13.568-69.888-51.712-48.426666a12.288 12.288 0 0 1-3.285333-12.928 12.842667 12.842667 0 0 1 10.24-8.533334l71.893333-14.421333 31.146667-63.573333a12.8 12.8 0 0 1 22.741333 0l31.914667 65.066666 71.509333 12.586667c4.565333 0.810667 8.362667 4.053333 9.898667 8.490667a12.629333 12.629333 0 0 1-2.944 11.477333z" p-id="19212"></path></svg>