<?xml version="1.0" standalone="no"?><!DOCTYPE svg PUBLIC "-//W3C//DTD SVG 1.1//EN" "http://www.w3.org/Graphics/SVG/1.1/DTD/svg11.dtd"><svg t="1591931129058" class="icon" viewBox="0 0 1024 1024" version="1.1" xmlns="http://www.w3.org/2000/svg" p-id="12712" xmlns:xlink="http://www.w3.org/1999/xlink" width="128" height="128"><defs><style type="text/css"></style></defs><path d="M750.82752 666.1632a100.224 100.224 0 0 0-100.64384 100.63872 100.224 100.224 0 0 0 100.64384 100.64384 100.224 100.224 0 0 0 100.64384-100.64384c0-55.9104-46.33088-100.64384-100.64384-100.64384z m0 148.56192c-27.15648 0-49.52576-22.36416-49.52576-49.52064s22.36928-49.52064 49.52576-49.52064 49.52064 22.36416 49.52064 49.52064c-1.59744 27.15648-23.9616 49.52064-49.52064 49.52064z m265.18528-100.63872c-3.19488-19.1744-15.9744-33.55136-33.54624-33.55136h-1.59744a57.27232 57.27232 0 0 1-57.51296-57.50784c0-7.9872 3.19488-19.16928 4.79232-20.76672 7.9872-17.57184 1.59744-38.34368-15.9744-51.1232l-65.49504-36.74112c-4.79232-1.59744-11.18208-3.19488-15.9744-3.19488-12.78464 0-23.9616 4.79232-31.9488 12.77952-7.9872 7.9872-30.35648 25.55904-46.336 25.55904-15.9744 0-36.736-17.57184-46.32064-27.15648-7.9872-7.9872-20.77184-12.77952-31.9488-12.77952-6.39488 0-11.1872 1.59744-15.9744 3.19488h-1.60256l-67.09248 36.74112-1.59744 1.59744c-15.9744 11.18208-22.36928 31.9488-14.38208 49.52576 0 1.59744 4.79744 12.77952 4.79744 22.36416 0 31.9488-25.56416 57.50784-57.51296 57.50784h-3.19488c-15.9744 0-28.75392 12.77952-31.9488 33.55136 0 3.19488-6.38976 30.35136-6.38976 52.71552 0 22.36416 4.79232 49.52064 6.38976 52.71552 3.19488 19.1744 15.9744 33.55136 33.54624 33.55136h1.59744c31.9488 0 57.51296 25.55904 57.51296 57.50784 0 7.9872-3.2 19.16928-4.79744 20.76672-7.9872 17.57184-1.59744 38.34368 15.9744 51.1232l65.50016 36.74112c4.79232 1.59744 11.18208 3.19488 17.57184 3.19488 12.77952 0 23.9616-4.79232 31.9488-14.37696 7.9872-7.9872 30.35648-27.15648 46.33088-27.15648 15.9744 0 38.33856 19.16928 46.32576 28.75392 7.9872 7.9872 20.76672 14.37696 31.9488 14.37696 6.39488 0 11.1872-1.59744 17.57696-4.79232l65.49504-36.74112 1.59744-1.59744c15.9744-11.18208 22.36416-31.9488 14.37696-49.52576 0-1.59744-4.79232-12.77952-4.79232-22.36416 0-31.9488 25.55904-57.50784 57.51296-57.50784h3.19488c15.9744 0 28.75392-12.77952 31.9488-33.55136 0 0 6.38976-28.75392 6.38976-52.71552 0-20.76672-4.79232-47.9232-6.38976-51.11808z m-49.52064 87.8592c-54.31808 6.38976-94.2592 52.72064-94.2592 108.63104 0 12.77952 3.2 25.55904 6.39488 33.54624l-47.9232 27.1616c-4.79744-4.79232-11.1872-11.18208-19.1744-17.57696-20.76672-15.9744-41.53344-23.9616-60.70272-23.9616-19.16928 0-39.936 7.9872-60.70784 22.36416-7.9872 6.38976-14.37696 12.78464-19.16928 15.9744l-46.32576-25.55904c3.19488-7.9872 6.38976-20.76672 6.38976-33.54624 0-54.31296-41.53344-100.64384-94.25408-108.63104-1.59744-9.58464-3.19488-23.9616-3.19488-35.14368s1.59744-25.55904 3.19488-35.14368c54.31808-6.38976 94.25408-52.72064 94.25408-108.63104 0-12.77952-3.19488-23.9616-6.38976-33.54624l49.52064-27.1616c4.79232 4.79232 11.18208 9.58464 19.16928 15.9744 20.77184 14.38208 39.936 22.36928 59.1104 22.36928 19.16928 0 38.33856-7.9872 59.10528-22.36416 7.9872-6.39488 14.37696-11.1872 19.16928-15.9744l47.9232 25.55904c-3.18976 7.9872-6.38464 20.76672-6.38464 33.54624 0 54.31296 41.53344 100.64384 94.25408 108.63104 1.59744 9.58464 3.19488 23.9616 3.19488 35.14368 0 14.37696-1.59744 28.75392-3.19488 38.33856zM67.0976 948.9152v-57.50784c0-193.30048 150.16448-353.0496 340.26496-372.21888 11.18208-1.59744 23.9616-1.59744 35.14368-1.59744h4.79232c41.53856-3.19488 105.43616-12.77952 138.98752-43.13088l15.9744-12.77952c63.8976-49.52576 100.63872-124.60544 100.63872-204.48256C704.50176 116.61824 587.88352 0 444.1088 0 300.3392 0 182.1184 116.61824 182.1184 258.79552c0 79.872 36.74624 153.35936 100.64384 204.48256l15.9744 12.77952-19.16928 7.9872C110.2336 551.13728 0 710.89152 0 891.40736v91.0592c0 19.16928 14.37696 33.54624 33.54624 33.54624h492.032c-15.9744-20.76672-30.35136-43.13088-39.936-67.0976H67.0976zM249.21088 258.79552c0-105.43616 86.26688-193.29536 193.29536-193.29536 107.0336 0 193.30048 86.26176 193.30048 193.29536 0 105.43616-86.26688 193.30048-193.30048 193.30048-105.43104 0-193.29536-86.272-193.29536-193.30048z" p-id="12713"></path></svg>