<?xml version="1.0" standalone="no"?><!DOCTYPE svg PUBLIC "-//W3C//DTD SVG 1.1//EN" "http://www.w3.org/Graphics/SVG/1.1/DTD/svg11.dtd"><svg t="1593511924946" class="icon" viewBox="0 0 1024 1024" version="1.1" xmlns="http://www.w3.org/2000/svg" p-id="2121" xmlns:xlink="http://www.w3.org/1999/xlink" width="128" height="128"><defs><style type="text/css"></style></defs><path d="M576.814895 1024c-17.261542 0-33.133383-3.949675-48.420087-11.922166L396.446413 938.569997a99.10758 99.10758 0 0 1-52.369762-88.136261V431.84135a20.699222 20.699222 0 0 0-8.045634-15.871841L31.028353 171.528525l-3.291396-3.949675c-28.525429-28.525429-35.181362-70.87472-19.236379-107.957778 15.506131-36.571063 51.638341-60.195969 91.427657-59.610832H923.069718c39.716174 0 75.775242 23.332338 92.159078 59.610832 16.383836 36.278494 9.28905 78.920354-17.91982 107.957778l-4.022817 3.949675-309.025481 247.0741a21.211216 21.211216 0 0 0-7.314213 15.871842v488.881968A99.180722 99.180722 0 0 1 579.301727 1024h-2.486832zM83.398115 111.917692l303.759248 242.466147c23.771191 19.163237 37.814479 47.688666 37.814479 78.11579v418.592386c0 7.314213 3.218254 14.628425 9.874187 17.919821l132.021537 72.191278c5.997654 3.218254 13.897004 3.218254 20.479795 0a20.845506 20.845506 0 0 0 9.947329-17.846679V435.205888c0-30.500266 13.311867-58.952553 37.229342-78.262075l304.417527-244.952979a20.479795 20.479795 0 0 0 1.901696-21.211216 19.9678 19.9678 0 0 0-17.919821-11.263887H100.001377a18.797526 18.797526 0 0 0-17.919821 11.263887 20.187227 20.187227 0 0 0 1.316559 21.211216V111.917692z m902.573831 415.959269h-216.500692a39.131037 39.131037 0 0 1-38.033905-39.716174c0-21.869496 17.042115-39.716174 38.033905-39.716174h216.500692c20.918648 0 38.033905 17.846679 38.033906 39.716174a38.253332 38.253332 0 0 1-38.033906 39.716174z m0 152.647617h-216.500692a39.131037 39.131037 0 0 1-38.033905-39.716175c0-21.942638 17.042115-39.789316 38.033905-39.789316h216.500692c20.918648 0 38.033905 17.919821 38.033906 39.789316a38.253332 38.253332 0 0 1-38.033906 39.716175z m0 152.647616h-216.500692a39.131037 39.131037 0 0 1-38.033905-39.789316c0-21.796353 17.042115-39.716174 38.033905-39.716175h216.500692c20.918648 0 38.033905 17.919821 38.033906 39.716175a38.619042 38.619042 0 0 1-38.033906 39.789316z"  p-id="2122"></path></svg>