<?xml version="1.0" standalone="no"?><!DOCTYPE svg PUBLIC "-//W3C//DTD SVG 1.1//EN" "http://www.w3.org/Graphics/SVG/1.1/DTD/svg11.dtd"><svg t="1592876889648" class="icon" viewBox="0 0 1024 1024" version="1.1" xmlns="http://www.w3.org/2000/svg" p-id="2129" xmlns:xlink="http://www.w3.org/1999/xlink" width="128" height="128"><defs><style type="text/css"></style></defs><path d="M512 64C264.58 64 64 264.58 64 512s200.58 448 448 448 448-200.58 448-448S759.42 64 512 64z m-0.03 149.3c32.99-0.02 59.75 26.71 59.76 59.7v0.06L541.87 601.6h-59.73l-29.87-328.53c-0.02-32.99 26.71-59.75 59.7-59.77z m2.73 567.47c-0.89 0.02-1.78 0.02-2.67 0-32.98-0.73-59.13-28.06-58.4-61.04 0.71-31.94 26.43-57.68 58.37-58.4 32.98-0.75 60.32 25.39 61.07 58.37 0.74 32.98-25.39 60.32-58.37 61.07z" p-id="2130"></path></svg>